<svg version="1.1" id="Layer_1" xmlns="http://www.w3.org/2000/svg" xmlns:xlink="http://www.w3.org/1999/xlink" x="0px" y="0px"
	 width="100%" viewBox="0 0 1627 359" enable-background="new 0 0 1627 359" xml:space="preserve">

<path fill="#FFFFFF" opacity="1.000000" stroke="none" 
	d="
M0.999999,280.437500 
	C4.144090,279.000000 7.279887,277.164032 10.433592,277.132782 
	C34.744545,276.891541 59.058964,277.000000 84.000000,277.000000 
	C84.000000,275.087036 84.000000,273.329529 84.000000,271.571991 
	C84.000000,206.252609 84.176613,140.932114 83.772041,75.615242 
	C83.722572,67.628761 86.662613,63.465508 93.062187,59.927891 
	C118.095261,46.089859 142.990112,32.001762 167.934723,18.003714 
	C172.698654,15.330355 177.310944,12.316569 182.285645,10.123118 
	C184.302765,9.233733 187.581085,9.265569 189.472244,10.327105 
	C210.355347,22.049173 231.077133,34.058617 251.845184,45.985714 
	C259.608551,50.444229 267.378754,54.890884 275.720886,59.672581 
	C275.720886,45.419415 275.720886,32.027763 275.720886,18.000000 
	C273.437042,18.000000 271.009338,18.000000 268.581635,18.000000 
	C252.585052,18.000000 236.588272,18.036823 220.592087,17.957317 
	C218.383453,17.946341 214.770218,19.151316 215.268463,15.101609 
	C215.420151,13.868560 218.710373,12.158849 220.582214,12.134551 
	C238.075531,11.907473 255.573013,11.999865 273.069275,11.999786 
	C273.873993,11.999783 274.678680,11.999785 276.000000,11.999785 
	C276.000000,8.472753 276.000000,5.199752 276.000000,1.463376 
	C277.388885,1.000000 278.777802,1.000000 280.583344,1.463376 
	C281.000000,5.196822 281.000000,8.466891 281.000000,11.795980 
	C306.906372,11.795980 332.303314,11.795980 357.778168,11.795980 
	C358.199768,8.070727 358.599884,4.535363 359.000000,1.000000 
	C360.714355,1.000000 362.428711,1.000000 364.571533,1.000000 
	C365.489044,3.536049 365.978119,6.072098 366.484528,8.698199 
	C367.726624,8.148294 369.124390,7.286630 370.641846,6.918607 
	C372.576294,6.449459 374.607513,6.379401 376.596985,6.137313 
	C375.855835,7.930388 375.114655,9.723468 374.260681,11.789430 
	C374.413727,11.815473 375.709198,11.696225 376.534119,12.262463 
	C377.558380,12.965515 379.049469,14.560253 378.810547,15.190466 
	C378.370941,16.350060 376.887329,17.743961 375.710388,17.873537 
	C372.427856,18.234924 369.079529,17.999163 365.618835,17.999163 
	C365.618835,39.618214 365.618835,61.059288 365.618835,83.000534 
	C367.019958,83.000534 368.858948,82.742760 370.576843,83.087898 
	C371.795319,83.332710 372.850159,84.391731 373.978058,85.087326 
	C373.119415,86.093994 372.444855,87.451180 371.357483,88.022293 
	C369.859283,88.809181 368.049164,89.002213 366.000000,89.549103 
	C366.000000,97.786819 366.000183,106.262589 365.999786,114.738350 
	C365.999756,115.904884 366.429413,117.347420 365.899994,118.177162 
	C364.965149,119.642265 363.445099,120.733955 362.170013,121.981949 
	C361.446747,120.718071 360.120270,119.465469 360.096375,118.188507 
	C359.919006,108.696922 360.000153,99.200485 360.000153,89.236908 
	C358.521973,89.155830 357.101654,89.011368 355.681213,89.010124 
	C338.016357,88.994652 320.351501,89.000000 302.686646,89.000000 
	C301.853394,89.000000 300.862823,89.292122 300.216949,88.944229 
	C298.406403,87.969040 296.738129,86.729675 295.013733,85.594528 
	C296.637329,84.729683 298.253754,83.128616 299.885620,83.112747 
	C318.215332,82.934456 336.547424,83.000000 354.878876,83.000000 
	C356.367706,83.000000 357.856537,83.000000 359.672455,83.000000 
	C359.672455,62.117699 359.672455,41.367435 359.672455,20.383907 
	C345.805023,29.419899 331.823669,38.484600 317.891083,47.623680 
	C307.647736,54.342831 297.435822,61.111710 287.306732,68.000801 
	C286.208405,68.747810 285.095978,70.440025 285.094391,71.695236 
	C285.006714,139.854263 285.037292,208.013428 285.068024,276.172577 
	C285.068085,276.299744 285.250336,276.426819 285.688324,277.000000 
	C292.286835,277.000000 299.235626,277.000000 306.184418,277.000000 
	C323.515961,277.000000 340.847534,277.000000 358.179077,277.000000 
	C358.845673,277.000000 359.512268,276.999237 360.178864,277.000122 
	C365.580566,277.007355 370.088531,279.831818 369.959381,283.127808 
	C369.797119,287.269623 365.987427,289.997528 360.329895,289.998413 
	C336.665649,290.002167 312.995422,290.295654 289.340973,289.814514 
	C282.506958,289.675507 277.512390,291.904022 272.441742,295.938293 
	C263.706635,302.888092 254.567673,309.328461 245.644089,316.043610 
	C229.061935,328.522034 212.515167,341.047424 195.947418,353.544983 
	C193.367889,355.490784 190.755463,357.392944 188.079132,359.657654 
	C185.629440,360.000000 183.258896,360.000000 180.442780,359.637695 
	C179.462631,358.486450 179.088409,357.486145 178.369232,356.940491 
	C168.691055,349.597504 158.976196,342.302643 149.247894,335.026031 
	C133.827560,323.491821 118.154861,312.278046 103.055695,300.338440 
	C95.060387,294.016205 87.304626,290.161346 76.453102,290.695709 
	C55.351471,291.734802 34.162445,290.976654 13.009730,291.018799 
	C8.516278,291.027740 4.372349,290.227509 1.000000,287.000000 
	C1.000000,284.958344 1.000000,282.916656 0.999999,280.437500 
M192.000000,70.500000 
	C192.000000,159.930634 192.000000,249.361252 192.000000,339.512177 
	C193.604599,338.805969 194.699509,338.552399 195.514130,337.931213 
	C207.126465,329.076691 218.634094,320.083588 230.302490,311.304047 
	C242.978058,301.766663 255.661591,292.226868 268.648926,283.126617 
	C271.664948,281.013275 272.039581,278.921478 272.037292,275.843506 
	C271.988190,209.683151 272.000000,143.522736 272.000000,77.362343 
	C272.000000,75.702148 272.000000,74.041954 272.000000,72.685196 
	C245.266296,57.377312 218.803604,42.224617 192.000000,26.876717 
	C192.000000,41.517151 192.000000,55.508575 192.000000,70.500000 
M178.000000,135.500000 
	C178.000000,99.522049 178.000000,63.544106 178.000000,27.010212 
	C151.273331,42.291611 124.824974,57.413868 98.000000,72.751472 
	C98.000000,74.105614 98.000000,75.925728 98.000000,77.745842 
	C98.000000,143.539810 98.068001,209.334000 97.843483,275.127197 
	C97.828873,279.408936 99.665329,281.725769 102.457794,283.822632 
	C122.001381,298.497986 141.607483,313.090149 161.205124,327.693451 
	C166.319794,331.504669 171.475281,335.261078 178.000000,340.064514 
	C178.000000,271.168427 178.000000,203.834213 178.000000,135.500000 
M342.337982,25.969286 
	C345.815491,23.536114 349.292969,21.102940 353.239075,18.341898 
	C329.028198,18.341898 305.567108,18.341898 282.260101,18.341898 
	C282.260101,33.732590 282.260101,48.780399 282.260101,65.170433 
	C302.563934,51.778084 322.077759,38.906815 342.337982,25.969286 
z"/>
<path fill="#FFFFFF" opacity="1.000000" stroke="none" 
	d="
M1628.000000,155.666687 
	C1623.754395,156.332626 1619.478760,157.092987 1615.276855,156.799637 
	C1613.446289,156.671814 1610.985352,154.756943 1610.148315,153.012054 
	C1605.484131,143.287491 1598.262451,139.977234 1587.453613,140.762177 
	C1573.862183,141.749176 1560.144653,140.982956 1546.481567,141.005692 
	C1536.547852,141.022232 1529.795898,150.505539 1532.985962,160.052383 
	C1534.484619,164.537704 1535.921265,169.198822 1540.814209,171.316162 
	C1542.532227,172.059647 1544.399902,172.914185 1546.205078,172.927490 
	C1562.866577,173.050400 1579.533936,173.249313 1596.190186,172.928436 
	C1612.183472,172.620316 1620.115112,181.772324 1624.994385,192.998123 
	C1632.923706,211.240967 1617.838623,231.361481 1602.623657,235.712051 
	C1601.224976,236.112015 1599.656494,235.987717 1598.166748,235.989319 
	C1582.170898,236.006485 1566.157349,235.548325 1550.186279,236.177322 
	C1541.270874,236.528458 1534.180542,233.298477 1527.735107,228.091232 
	C1520.424316,222.184845 1514.655640,215.249741 1517.607910,204.021530 
	C1521.531860,204.021530 1525.967041,203.847107 1530.367188,204.161865 
	C1531.298828,204.228516 1532.453857,205.948013 1532.909790,207.134979 
	C1536.764648,217.172760 1540.703125,220.000000 1551.208008,220.000000 
	C1565.204346,220.000000 1579.201660,219.904007 1593.196655,220.038986 
	C1600.611328,220.110504 1605.517212,216.425430 1609.146973,210.413666 
	C1613.013428,204.009583 1610.622803,198.190918 1606.473145,193.424545 
	C1604.398438,191.041672 1600.330200,189.270996 1597.115356,189.192291 
	C1580.296631,188.780579 1563.462280,189.020706 1546.633423,188.993805 
	C1531.690063,188.969910 1516.899902,174.278198 1517.061890,159.400330 
	C1517.113403,154.666412 1517.317627,149.796722 1518.451416,145.237762 
	C1521.884644,131.433807 1533.611816,125.759674 1545.469238,125.223747 
	C1564.092896,124.381996 1582.800415,124.559456 1601.432007,125.308762 
	C1606.113159,125.497032 1611.496826,128.596497 1615.048828,131.954178 
	C1621.184326,137.754288 1626.205933,144.767044 1627.639160,153.847198 
	C1628.000000,154.444443 1628.000000,154.888901 1628.000000,155.666687 
z"/>
<path fill="#FFFFFF" opacity="1.000000" stroke="none" 
	d="
M706.935303,141.240128 
	C711.269775,133.934509 717.221375,129.020706 724.771484,126.120224 
	C726.550781,125.436714 728.560852,125.055344 730.466980,125.046974 
	C748.460449,124.968018 766.457825,125.215080 784.446899,124.924812 
	C796.554443,124.729454 804.359558,130.837830 810.229980,140.605850 
	C813.703003,146.384827 815.133484,152.496857 815.079895,159.280731 
	C814.880127,184.598312 815.000000,209.918427 815.000000,235.618668 
	C809.812683,235.618668 804.748840,235.618668 799.185120,235.618668 
	C799.185120,225.391449 799.185120,214.991882 799.185120,204.300446 
	C772.640137,204.300446 746.587341,204.300446 720.039307,204.300446 
	C720.039307,214.761551 720.039307,225.159744 720.039307,235.773041 
	C714.944458,235.773041 710.335876,235.773041 705.000000,235.773041 
	C705.000000,234.076111 705.000000,232.324875 705.000000,230.573639 
	C705.000000,203.749603 704.945129,176.925293 705.080872,150.101944 
	C705.095215,147.272385 706.231140,144.448517 706.935303,141.240128 
M789.875366,144.378036 
	C787.252380,143.585495 784.638123,142.142242 782.005005,142.106995 
	C766.029114,141.893127 750.048706,141.951263 734.070312,142.028229 
	C728.830933,142.053452 721.264954,147.790543 721.127930,152.436737 
	C720.791504,163.847534 721.017944,175.274948 721.017944,186.694916 
	C746.965332,186.694916 772.334106,186.694916 798.000000,186.694916 
	C798.000000,176.930420 797.659729,167.452072 798.118591,158.012573 
	C798.429077,151.625656 795.490723,147.810638 789.875366,144.378036 
z"/>
<path fill="#FFFFFF" opacity="1.000000" stroke="none" 
	d="
M1376.000000,160.062607 
	C1376.000000,185.505569 1376.000000,210.457962 1376.000000,235.704559 
	C1370.629272,235.704559 1365.573120,235.704559 1360.023193,235.704559 
	C1360.023193,225.220917 1360.023193,214.826859 1360.023193,204.221634 
	C1333.607788,204.221634 1307.680298,204.221634 1281.262207,204.221634 
	C1281.262207,214.532974 1281.262207,224.927475 1281.262207,235.658600 
	C1276.056885,235.658600 1271.333008,235.658600 1266.000000,235.658600 
	C1266.000000,233.938354 1266.000000,232.171448 1266.000000,230.404556 
	C1266.000000,204.424347 1266.479248,178.431580 1265.799072,152.469193 
	C1265.455688,139.365402 1275.112305,131.119995 1283.419189,127.155251 
	C1286.652588,125.611900 1290.644531,125.135910 1294.302002,125.091423 
	C1311.286621,124.884804 1328.279541,125.238106 1345.260620,124.919479 
	C1357.346436,124.692696 1365.198120,130.674576 1371.115845,140.443420 
	C1374.706421,146.370346 1376.628540,152.619019 1376.000000,160.062607 
M1343.496582,187.000000 
	C1348.589844,187.000000 1353.682983,187.000000 1359.000000,187.000000 
	C1359.000000,177.182968 1359.000000,168.035049 1359.000000,158.887146 
	C1358.999878,149.183517 1352.297607,142.114365 1342.628052,142.035263 
	C1326.797974,141.905746 1310.966064,141.955429 1295.135376,142.025772 
	C1289.945190,142.048828 1282.267578,147.801270 1282.130981,152.392960 
	C1281.791016,163.817444 1282.018921,175.258804 1282.018921,187.000000 
	C1302.560425,187.000000 1322.529297,187.000000 1343.496582,187.000000 
z"/>
<path fill="#FFFFFF" opacity="1.000000" stroke="none" 
	d="
M522.000000,236.000000 
	C516.169800,236.000000 510.798462,235.574692 505.517761,236.085892 
	C493.407745,237.258163 485.647461,230.458725 479.070770,221.893112 
	C473.383972,214.486511 473.598358,213.909058 474.244080,204.326630 
	C478.958618,204.326630 483.703552,204.326630 488.469055,204.326630 
	C490.393005,212.446869 497.004517,219.662415 507.280121,219.230698 
	C521.330017,218.640366 535.446594,219.759888 549.537231,219.952225 
	C554.873291,220.025055 559.878723,218.659363 563.819702,214.675690 
	C568.285034,210.162003 569.176208,204.384689 566.471924,197.948441 
	C564.022217,192.117844 560.092163,188.858078 553.364990,188.936356 
	C536.710388,189.130188 520.026733,189.571289 503.402557,188.834717 
	C487.682220,188.138153 475.651672,177.248566 474.118835,161.474411 
	C473.680725,156.966217 474.413544,152.290771 475.011963,147.745026 
	C477.110870,131.800934 491.770691,125.457794 503.358063,125.125374 
	C520.334045,124.638382 537.344727,125.350441 554.319885,124.849442 
	C562.579041,124.605682 568.718506,128.422256 573.752258,133.636520 
	C577.912170,137.945587 580.924133,143.639267 583.443970,149.174957 
	C585.805176,154.361938 583.460693,156.993942 577.709839,156.999496 
	C574.721436,157.002380 571.733032,157.000000 568.500610,157.000000 
	C567.756897,150.511124 564.399414,145.736847 558.968262,142.585876 
	C557.231873,141.578537 554.958618,141.081894 552.925598,141.066635 
	C536.935974,140.946564 520.944763,140.948486 504.954498,141.017029 
	C493.103760,141.067810 486.052002,152.205200 490.957428,162.879700 
	C494.113251,169.746979 498.827881,173.364594 506.944519,173.133789 
	C522.922180,172.679474 538.927307,172.735443 554.910889,173.068817 
	C573.719116,173.461090 590.118103,194.785065 581.951721,214.179092 
	C577.717590,224.234375 571.206726,232.067291 560.261780,235.234695 
	C558.723083,235.680008 557.078125,235.958069 555.480347,235.967133 
	C544.487183,236.029633 533.493530,236.000000 522.000000,236.000000 
z"/>
<path fill="#FFFFFF" opacity="1.000000" stroke="none" 
	d="
M834.224731,125.008698 
	C838.656250,125.001907 842.610168,125.001907 846.859009,125.001907 
	C846.859009,141.054993 846.859009,156.658127 846.859009,172.629623 
	C872.878418,172.629623 898.592834,172.629623 924.795532,172.629623 
	C924.795532,157.070312 924.795532,141.346481 924.795532,125.313652 
	C930.333679,125.313652 935.390503,125.313652 940.726074,125.313652 
	C940.726074,162.068039 940.726074,198.776474 940.726074,235.742722 
	C935.675781,235.742722 930.734558,235.742722 925.302734,235.742722 
	C925.302734,220.501251 925.302734,205.111893 925.302734,189.362457 
	C899.105530,189.362457 873.391174,189.362457 847.188232,189.362457 
	C847.188232,204.612869 847.188232,220.003082 847.188232,235.694427 
	C841.983154,235.694427 837.260010,235.694427 832.000000,235.694427 
	C832.000000,234.187607 832.000000,232.744400 832.000000,231.301193 
	C832.000000,197.490814 831.975891,163.680344 832.074158,129.870255 
	C832.078918,128.250381 833.164795,126.633667 834.224731,125.008698 
z"/>
<path fill="#FFFFFF" opacity="1.000000" stroke="none" 
	d="
M1161.100464,189.000000 
	C1158.965088,189.000000 1157.316162,189.000000 1155.185303,189.000000 
	C1155.185303,204.617615 1155.185303,220.007019 1155.185303,235.695938 
	C1149.981567,235.695938 1145.258423,235.695938 1140.264404,235.695938 
	C1140.264404,198.913605 1140.264404,162.205887 1140.264404,125.248871 
	C1145.007935,125.248871 1149.617065,125.248871 1154.714233,125.248871 
	C1154.714233,140.844177 1154.714233,156.569183 1154.714233,172.645065 
	C1180.909546,172.645065 1206.622925,172.645065 1232.824341,172.645065 
	C1232.824341,157.041000 1232.824341,141.317215 1232.824341,125.299484 
	C1238.361694,125.299484 1243.417969,125.299484 1248.739990,125.299484 
	C1248.739990,162.095673 1248.739990,198.803299 1248.739990,235.755646 
	C1243.648315,235.755646 1238.707031,235.755646 1233.276733,235.755646 
	C1233.276733,220.479553 1233.276733,205.087753 1233.276733,189.000000 
	C1209.060547,189.000000 1185.323730,189.000000 1161.100464,189.000000 
z"/>
<path fill="#FFFFFF" opacity="1.000000" stroke="none" 
	d="
M1486.000000,148.000046 
	C1486.000000,140.197296 1486.000000,132.894531 1486.000000,125.297531 
	C1491.366699,125.297531 1496.423950,125.297531 1502.000000,125.297531 
	C1502.000000,127.166321 1502.000000,128.945969 1502.000000,130.725601 
	C1502.000000,154.215210 1501.743408,177.709229 1502.147095,201.191895 
	C1502.278320,208.826981 1500.307617,215.261658 1495.966919,221.274902 
	C1491.387939,227.618088 1486.203613,233.162842 1478.283081,235.222214 
	C1476.728638,235.626404 1475.101074,235.962418 1473.506226,235.967133 
	C1455.847534,236.019363 1438.188599,236.022476 1420.529785,235.992676 
	C1407.107544,235.970032 1393.000000,221.886353 1393.000000,208.574554 
	C1393.000000,180.938538 1393.000000,153.302505 1393.000000,125.333572 
	C1397.627075,125.333572 1402.018555,125.333572 1407.000000,125.333572 
	C1407.000000,127.083664 1407.000000,128.854019 1407.000000,130.624359 
	C1407.000000,155.113525 1406.998047,179.602676 1407.001343,204.091843 
	C1407.002075,209.809860 1410.501587,215.451874 1415.925537,216.840881 
	C1421.878540,218.365417 1428.051636,219.749985 1434.149170,219.841110 
	C1446.899414,220.031693 1459.665771,219.411896 1472.419800,218.964859 
	C1478.739136,218.743362 1485.993042,210.838348 1485.996460,204.475067 
	C1486.006348,185.816727 1486.000000,167.158371 1486.000000,148.000046 
z"/>
<path fill="#FFFFFF" opacity="1.000000" stroke="none" 
	d="
M643.000000,125.000000 
	C662.456299,125.000000 681.412537,125.000000 700.683777,125.000000 
	C700.683777,130.326843 700.683777,135.382248 700.683777,140.922180 
	C685.273315,140.922180 669.886780,140.922180 654.046265,140.922180 
	C654.046265,172.768097 654.046265,204.139084 654.046265,235.753052 
	C648.655701,235.753052 643.715271,235.753052 638.311157,235.753052 
	C638.311157,204.500885 638.311157,173.129669 638.311157,141.279526 
	C622.479004,141.279526 607.092163,141.279526 591.354736,141.279526 
	C591.354736,135.756775 591.354736,130.697983 591.354736,125.000000 
	C608.343933,125.000000 625.421997,125.000000 643.000000,125.000000 
z"/>
<path fill="#FFFFFF" opacity="1.000000" stroke="none" 
	d="
M979.000122,236.000000 
	C971.864136,236.000000 965.228088,236.000000 958.297974,236.000000 
	C958.297974,198.975555 958.297974,162.263565 958.297974,125.275406 
	C963.079224,125.275406 967.803040,125.275406 972.833130,125.275406 
	C972.833130,156.699493 972.833130,187.963654 972.833130,219.707443 
	C1004.512329,219.707443 1035.895996,219.707443 1067.638916,219.707443 
	C1067.638916,225.232941 1067.638916,230.291504 1067.638916,236.000000 
	C1038.325073,236.000000 1008.912598,236.000000 979.000122,236.000000 
z"/>
<path fill="#FFFFFF" opacity="1.000000" stroke="none" 
	d="
M320.781128,195.282242 
	C329.437805,200.943771 337.832855,206.337784 346.231079,211.726883 
	C350.537231,214.490143 354.848999,217.244644 359.617554,220.297119 
	C359.617554,199.407562 359.617554,178.932098 359.617554,158.000000 
	C347.059570,158.000000 334.453094,158.000000 321.846588,158.000000 
	C314.517395,158.000000 307.182159,158.158478 299.863647,157.878830 
	C298.213745,157.815781 295.461853,156.462601 295.222992,155.293457 
	C294.527435,151.889313 297.624054,152.051270 299.809143,152.037338 
	C311.968445,151.959778 324.128510,152.000031 336.288300,152.000000 
	C344.072662,151.999985 351.857025,152.000000 360.003540,152.000000 
	C360.003540,148.499817 360.003540,145.406143 360.003540,142.349533 
	C365.305176,141.925232 365.305176,141.925232 366.383179,151.656845 
	C368.939819,152.862167 373.853333,150.283356 373.658447,155.375214 
	C373.608215,156.687912 369.395691,157.841309 367.095215,159.067871 
	C366.730164,158.732391 366.365082,158.396896 366.000000,158.061401 
	C366.000000,160.503403 366.000000,162.945419 366.000000,165.387421 
	C366.000031,181.378387 365.962463,197.369568 366.062378,213.359909 
	C366.071655,214.839050 366.597870,217.212601 367.516632,217.577332 
	C368.883392,218.119919 370.878143,217.437759 372.488983,216.916397 
	C374.418823,216.291824 376.225952,215.288147 378.554596,214.237259 
	C380.413391,222.942841 371.865570,222.261276 369.163696,226.878845 
	C371.386688,228.182861 374.016998,229.351044 376.149994,231.119125 
	C377.407318,232.161346 377.876190,234.154709 378.699677,235.720306 
	C376.835876,235.688522 374.731628,236.197037 373.164185,235.499420 
	C370.761261,234.429962 368.727966,232.530029 366.000000,230.602554 
	C366.000000,240.140991 366.121460,248.770386 365.886841,257.390076 
	C365.845123,258.921906 364.323456,260.413452 363.485199,261.923615 
	C362.323578,260.416748 360.218689,258.947174 360.157440,257.396881 
	C359.826019,249.005493 360.000275,240.594147 360.000275,231.472641 
	C338.818665,245.246811 318.360962,258.550232 297.416016,272.170502 
	C296.618042,271.115601 295.873932,270.131927 294.384644,268.163177 
	C314.033813,255.294586 333.726349,242.397644 354.183380,229.000000 
	C349.717651,229.000000 345.883484,229.000000 342.049316,229.000000 
	C328.556946,229.000000 315.064575,229.004547 301.572205,228.992859 
	C300.247406,228.991714 298.684265,229.308655 297.661469,228.724991 
	C296.521820,228.074631 295.394897,226.634903 295.209045,225.396729 
	C295.113068,224.756989 297.015411,223.206894 298.105347,223.112427 
	C301.577332,222.811539 305.091766,223.000076 308.589783,223.000061 
	C323.212372,222.999939 337.834991,223.000000 353.613525,223.000000 
	C338.839508,213.278687 324.959808,204.134735 311.066833,195.011002 
	C306.901611,192.275620 302.600372,189.734131 298.561584,186.825851 
	C296.888702,185.621231 295.741333,183.686844 294.354950,182.084351 
	C294.740234,181.533463 295.125549,180.982574 295.510834,180.431686 
	C297.812988,181.272095 300.339844,181.751953 302.375244,183.020401 
	C308.526123,186.853546 314.486298,190.992783 320.781128,195.282242 
z"/>
</svg>